<?xml version="1.0" standalone="no"?>
<!DOCTYPE svg PUBLIC "-//W3C//DTD SVG 20010904//EN"
 "http://www.w3.org/TR/2001/REC-SVG-20010904/DTD/svg10.dtd">
<svg version="1.0" xmlns="http://www.w3.org/2000/svg"
 width="260.000000pt" height="260.000000pt" viewBox="0 0 260.000000 260.000000"
 preserveAspectRatio="xMidYMid meet">
<metadata>
Created by potrace 1.14, written by Peter Selinger 2001-2017
</metadata>
<g transform="translate(0.000000,260.000000) scale(0.100000,-0.100000)"
fill="#000000" stroke="none">
<path d="M455 1971 c-184 -45 -304 -164 -348 -346 -8 -33 -15 -67 -15 -75 -3
-126 -1 -484 3 -510 18 -129 65 -227 143 -299 72 -66 116 -87 244 -115 57 -12
288 -14 338 -2 14 3 40 9 58 12 18 3 35 10 38 15 3 5 12 9 20 9 20 0 102 56
137 95 63 68 109 167 122 265 l3 25 -142 -2 c-77 -1 -149 -2 -158 -2 -9 -1
-26 -17 -38 -36 -35 -56 -87 -77 -194 -78 -106 0 -138 6 -175 29 -36 24 -46
35 -67 74 -17 31 -19 60 -19 275 0 239 0 240 25 275 39 56 52 67 98 82 59 20
227 16 269 -5 31 -17 73 -65 73 -86 0 -18 39 -22 185 -19 l140 3 -1 25 c-2 33
-9 70 -18 95 -62 169 -172 266 -341 301 -88 18 -295 16 -380 -5z"/>
<path d="M1825 1975 c-204 -46 -375 -171 -458 -335 -80 -161 -95 -385 -36
-566 27 -85 80 -168 147 -235 55 -54 169 -129 197 -129 8 0 16 -4 20 -9 3 -5
36 -16 73 -25 240 -53 465 -28 629 70 30 19 59 34 64 34 18 0 8 24 -38 83 -27
34 -53 67 -59 72 -6 6 -22 26 -35 45 -27 39 -56 70 -66 70 -3 0 -14 -6 -22
-14 -9 -8 -43 -23 -76 -35 -82 -27 -192 -23 -267 11 -88 41 -166 136 -185 225
-18 88 7 238 48 282 11 11 19 24 19 28 0 5 22 25 50 46 82 61 175 76 295 45
46 -12 131 -53 140 -68 3 -5 10 -10 15 -10 10 0 200 247 200 260 0 28 -190
125 -282 144 -13 3 -34 8 -48 11 -53 14 -265 14 -325 0z"/>
</g>
</svg>
